<svg width="25" height="24" viewBox="0 0 25 24" fill="none" xmlns="http://www.w3.org/2000/svg">
<g clip-path="url(#clip0_167_1344)">
<path d="M17.2729 0.0119953C17.2219 -0.0450047 15.3844 0.0344953 13.7854 1.77C12.1864 3.504 12.4324 5.493 12.4684 5.544C12.5044 5.595 14.7484 5.6745 16.1809 3.657C17.6134 1.6395 17.3239 0.0704953 17.2729 0.0119953V0.0119953ZM22.2439 17.6115C22.1719 17.4675 18.7564 15.7605 19.0744 12.4785C19.3924 9.195 21.5869 8.295 21.6214 8.1975C21.6559 8.1 20.7259 7.0125 19.7404 6.462C19.0168 6.07387 18.216 5.85151 17.3959 5.811C17.2339 5.8065 16.6714 5.6685 15.5149 5.985C14.7529 6.1935 13.0354 6.8685 12.5629 6.8955C12.0889 6.9225 10.6789 6.1125 9.16239 5.89799C8.19189 5.71049 7.16289 6.0945 6.42639 6.39C5.69139 6.684 4.29339 7.521 3.31539 9.7455C2.33739 11.9685 2.84889 15.4905 3.21489 16.5855C3.58089 17.679 4.15239 19.4715 5.12439 20.7795C5.98839 22.2555 7.13439 23.28 7.61289 23.628C8.09139 23.976 9.44139 24.207 10.3774 23.7285C11.1304 23.2665 12.4894 23.001 13.0264 23.0205C13.5619 23.04 14.6179 23.2515 15.6994 23.829C16.5559 24.1245 17.3659 24.0015 18.1774 23.6715C18.9889 23.34 20.1634 22.083 21.5344 19.5345C22.0549 18.3495 22.2919 17.709 22.2439 17.6115V17.6115Z" fill="black"/>
<path d="M17.2729 0.0119953C17.2219 -0.0450047 15.3844 0.0344953 13.7854 1.77C12.1864 3.504 12.4324 5.493 12.4684 5.544C12.5044 5.595 14.7484 5.6745 16.1809 3.657C17.6134 1.6395 17.3239 0.0704953 17.2729 0.0119953V0.0119953ZM22.2439 17.6115C22.1719 17.4675 18.7564 15.7605 19.0744 12.4785C19.3924 9.195 21.5869 8.295 21.6214 8.1975C21.6559 8.1 20.7259 7.0125 19.7404 6.462C19.0168 6.07387 18.216 5.85151 17.3959 5.811C17.2339 5.8065 16.6714 5.6685 15.5149 5.985C14.7529 6.1935 13.0354 6.8685 12.5629 6.8955C12.0889 6.9225 10.6789 6.1125 9.16239 5.89799C8.19189 5.71049 7.16289 6.0945 6.42639 6.39C5.69139 6.684 4.29339 7.521 3.31539 9.7455C2.33739 11.9685 2.84889 15.4905 3.21489 16.5855C3.58089 17.679 4.15239 19.4715 5.12439 20.7795C5.98839 22.2555 7.13439 23.28 7.61289 23.628C8.09139 23.976 9.44139 24.207 10.3774 23.7285C11.1304 23.2665 12.4894 23.001 13.0264 23.0205C13.5619 23.04 14.6179 23.2515 15.6994 23.829C16.5559 24.1245 17.3659 24.0015 18.1774 23.6715C18.9889 23.34 20.1634 22.083 21.5344 19.5345C22.0549 18.3495 22.2919 17.709 22.2439 17.6115V17.6115Z" fill="black"/>
</g>
<defs>
<clipPath id="clip0_167_1344">
<rect width="24" height="24" fill="white" transform="translate(0.5)"/>
</clipPath>
</defs>
</svg>
