<svg width="24" height="24" viewBox="0 0 24 24" fill="none" xmlns="http://www.w3.org/2000/svg">
<g clip-path="url(#clip0_167_953)">
<path d="M23.5078 12.2245C23.5078 11.2413 23.4295 10.5237 23.2598 9.77963H12.2295V14.2176H18.7041C18.5736 15.3205 17.8687 16.9815 16.3022 18.0976L16.2802 18.2461L19.7678 20.9963L20.0095 21.0209C22.2285 18.9347 23.5078 15.8653 23.5078 12.2245" fill="#4285F4"/>
<path d="M12.2296 23.9176C15.4016 23.9176 18.0645 22.8545 20.0095 21.0209L16.3023 18.0976C15.3102 18.8018 13.9787 19.2934 12.2296 19.2934C9.1228 19.2934 6.48598 17.2074 5.54603 14.324L5.40825 14.3359L1.7818 17.1927L1.73438 17.3269C3.6663 21.2334 7.63462 23.9176 12.2296 23.9176Z" fill="#34A853"/>
<path d="M5.54621 14.324C5.2982 13.5799 5.15466 12.7825 5.15466 11.9588C5.15466 11.1349 5.2982 10.3377 5.53316 9.59357L5.52659 9.4351L1.8547 6.53238L1.73457 6.59055C0.938328 8.21165 0.481445 10.0321 0.481445 11.9588C0.481445 13.8854 0.938328 15.7058 1.73457 17.3269L5.54621 14.324" fill="#FBBC05"/>
<path d="M12.2295 4.62405C14.4356 4.62405 15.9237 5.59403 16.7722 6.40463L20.0878 3.1093C18.0515 1.18261 15.4015 1.52588e-05 12.2295 1.52588e-05C7.63462 1.52588e-05 3.6663 2.68408 1.73438 6.59058L5.53297 9.5936C6.48597 6.71021 9.12279 4.62405 12.2295 4.62405" fill="#EB4335"/>
</g>
<defs>
<clipPath id="clip0_167_953">
<rect width="23.04" height="24" fill="white" transform="translate(0.480469)"/>
</clipPath>
</defs>
</svg>
